<svg xmlns="http://www.w3.org/2000/svg" viewBox="0 0 26 26">
  <path d="M13 0.1875C6 0.1875 0.1875 5.25 0.1875 11.625C0.1875 14.621094 1.59375 17.257813 3.6875 19.28125C3.605469 20.441406 3.023438 21.132813 2.21875 21.8125C1.785156 22.175781 1.308594 22.515625 0.875 22.9375C0.441406 23.359375 0 23.929688 0 24.71875C0 25.175781 0.308594 25.574219 0.75 25.6875C2.628906 26.191406 4.648438 25.820313 6.5 25.15625C8.164063 24.558594 9.574219 23.671875 10.6875 22.8125C11.441406 22.9375 12.203125 23.03125 13 23.03125C20 23.03125 25.8125 17.996094 25.8125 11.625C25.8125 5.253906 20 0.1875 13 0.1875 Z M 13 2.1875C19.046875 2.1875 23.8125 6.476563 23.8125 11.625C23.8125 16.773438 19.046875 21.03125 13 21.03125C12.214844 21.03125 11.460938 20.984375 10.71875 20.84375C10.421875 20.773438 10.113281 20.84375 9.875 21.03125C8.972656 21.789063 7.457031 22.703125 5.84375 23.28125C4.851563 23.636719 3.84375 23.800781 2.90625 23.84375C3.117188 23.675781 3.28125 23.554688 3.53125 23.34375C4.539063 22.496094 5.75 21.128906 5.75 19.0625C5.75 18.773438 5.625 18.5 5.40625 18.3125C3.40625 16.585938 2.1875 14.234375 2.1875 11.625C2.1875 6.476563 6.953125 2.1875 13 2.1875Z" fill="#2B9254" />
</svg>